<svg width="110" height="110" viewBox="0 0 110 110" id="icon" fill="none" xmlns="http://www.w3.org/2000/svg">
<circle cx="55" cy="55" r="55" fill="#FF719C" fill-opacity="0.9"/>
<path d="M38.4886 43.7273V67H34.2386L24.1136 52.3523H23.9432V67H19.0227V43.7273H23.3409L33.3864 58.3636H33.5909V43.7273H38.4886ZM42.554 67V43.7273H58.2358V47.7841H47.4744V53.3295H57.429V57.3864H47.4744V62.9432H58.2812V67H42.554ZM67.3864 67L60.7273 43.7273H66.1023L69.9545 59.8977H70.1477L74.3977 43.7273H79L83.2386 59.9318H83.4432L87.2955 43.7273H92.6705L86.0114 67H81.2159L76.7841 51.7841H76.6023L72.1818 67H67.3864Z" fill="white"/>
</svg>
