<svg width="27" height="25" viewBox="0 0 27 25" fill="none" xmlns="http://www.w3.org/2000/svg">
<path fill-rule="evenodd" clip-rule="evenodd" d="M0.75 1.25C0.75 0.559644 1.30964 0 2 0H2.95491C4.37531 0 5.6738 0.802508 6.30902 2.07295L6.52254 2.5H22.6335C25.0325 2.5 26.8146 4.72156 26.2942 7.06349L24.9053 13.3135C24.524 15.0293 23.0022 16.25 21.2446 16.25H10.2554C8.49781 16.25 6.97601 15.0293 6.59473 13.3135L4.56315 4.17138L4.07295 3.19098C3.86121 2.7675 3.42838 2.5 2.95491 2.5H2C1.30964 2.5 0.75 1.94036 0.75 1.25ZM7.30827 5L9.0352 12.7712C9.16229 13.3431 9.66956 13.75 10.2554 13.75H21.2446C21.8304 13.75 22.3377 13.3431 22.4648 12.7712L23.8537 6.52116C24.0272 5.74052 23.4331 5 22.6335 5H7.30827ZM10.75 20C10.0596 20 9.5 20.5596 9.5 21.25C9.5 21.9404 10.0596 22.5 10.75 22.5C11.4404 22.5 12 21.9404 12 21.25C12 20.5596 11.4404 20 10.75 20ZM7 21.25C7 19.1789 8.67893 17.5 10.75 17.5C12.8211 17.5 14.5 19.1789 14.5 21.25C14.5 23.3211 12.8211 25 10.75 25C8.67893 25 7 23.3211 7 21.25ZM20.75 20C20.0596 20 19.5 20.5596 19.5 21.25C19.5 21.9404 20.0596 22.5 20.75 22.5C21.4404 22.5 22 21.9404 22 21.25C22 20.5596 21.4404 20 20.75 20ZM17 21.25C17 19.1789 18.6789 17.5 20.75 17.5C22.8211 17.5 24.5 19.1789 24.5 21.25C24.5 23.3211 22.8211 25 20.75 25C18.6789 25 17 23.3211 17 21.25Z" fill="white"/>
</svg>
