<svg width="33" height="33" viewBox="0 0 33 33" fill="none" xmlns="http://www.w3.org/2000/svg">
<path fill-rule="evenodd" clip-rule="evenodd" d="M2 13.8619C2 7.4854 7.16918 2.31622 13.5457 2.31622C19.9222 2.31622 25.0914 7.4854 25.0914 13.8619C25.0914 20.2384 19.9222 25.4076 13.5457 25.4076C7.16918 25.4076 2 20.2384 2 13.8619ZM13.5457 0.316223C6.06461 0.316223 0 6.38084 0 13.8619C0 21.343 6.06461 27.4076 13.5457 27.4076C16.9263 27.4076 20.0177 26.1692 22.3909 24.1213L30.6117 32.3421C31.0022 32.7326 31.6354 32.7326 32.0259 32.3421C32.4164 31.9515 32.4164 31.3184 32.0259 30.9279L23.8051 22.7071C25.853 20.3339 27.0914 17.2425 27.0914 13.8619C27.0914 6.38084 21.0268 0.316223 13.5457 0.316223Z" fill="white" fill-opacity="0.85"/>
</svg>
