<svg width="32" height="33" viewBox="0 0 32 33" fill="none" xmlns="http://www.w3.org/2000/svg">
<path fill-rule="evenodd" clip-rule="evenodd" d="M10.1429 5.93413C10.1429 5.15775 10.3419 4.23065 10.8241 3.52923C11.271 2.87918 11.995 2.3627 13.2572 2.3627H13.2759H13.2946H13.3132H13.3318H13.3503H13.3687H13.3872H13.4055H13.4238H13.4421H13.4603H13.4785H13.4966H13.5146H13.5326H13.5506H13.5685H13.5863H13.6042H13.6219H13.6396H13.6573H13.6749H13.6924H13.71H13.7274H13.7448H13.7622H13.7795H13.7968H13.814H13.8312H13.8483H13.8654H13.8824H13.8994H13.9163H13.9332H13.9501H13.9669H13.9836H14.0003H14.017H14.0336H14.0501H14.0667H14.0831H14.0996H14.1159H14.1323H14.1486H14.1648H14.181H14.1972H14.2133H14.2293H14.2454H14.2613H14.2773H14.2932H14.309H14.3248H14.3406H14.3563H14.372H14.3876H14.4032H14.4187H14.4342H14.4497H14.4651H14.4805H14.4958H14.5111H14.5264H14.5416H14.5567H14.5719H14.5869H14.602H14.617H14.6319H14.6469H14.6617H14.6766H14.6914H14.7061H14.7209H14.7355H14.7502H14.7648H14.7794H14.7939H14.8084H14.8228H14.8372H14.8516H14.8659H14.8802H14.8944H14.9087H14.9228H14.937H14.9511H14.9651H14.9792H14.9932H15.0071H15.021H15.0349H15.0488H15.0626H15.0763H15.0901H15.1038H15.1174H15.131H15.1446H15.1582H15.1717H15.1852H15.1986H15.2121H15.2254H15.2388H15.2521H15.2654H15.2786H15.2918H15.305H15.3181H15.3312H15.3443H15.3574H15.3704H15.3833H15.3963H15.4092H15.4221H15.4349H15.4477H15.4605H15.4733H15.486H15.4987H15.5113H15.5239H15.5365H15.5491H15.5616H15.5741H15.5866H15.599H15.6114H15.6238H15.6361H15.6484H15.6607H15.673H15.6852H15.6974H15.7096H15.7217H15.7338H15.7459H15.7579H15.77H15.782H15.7939H15.8059H15.8178H15.8296H15.8415H15.8533H15.8651H15.8769H15.8886H15.9004H15.9121H15.9237H15.9354H15.947H15.9585H15.9701H15.9816H15.9931H16.0046H16.0161H16.0275H16.0389H16.0503H16.0616H16.073H16.0843H16.0956H16.1068H16.1181H16.1293H16.1404H16.1516H16.1627H16.1739H16.1849H16.196H16.2071H16.2181H16.2291H16.24H16.251H16.2619H16.2728H16.2837H16.2946H16.3054H16.3162H16.327H16.3378H16.3486H16.3593H16.37H16.3807H16.3914H16.402H16.4127H16.4233H16.4339H16.4444H16.455H16.4655H16.476H16.4865H16.497H16.5074H16.5179H16.5283H16.5387H16.5491H16.5594H16.5698H16.5801H16.5904H16.6007H16.6109H16.6212H16.6314H16.6416H16.6518H16.662H16.6722H16.6823H16.6925H16.7026H16.7127H16.7228H16.7328H16.7429H16.7529H16.763H16.773H16.783H16.7929H16.8029H16.8128H16.8228H16.8327H16.8426H16.8525H16.8623H16.8722H16.8821H16.8919H16.9017H16.9115H16.9213H16.9311H16.9408H16.9506H16.9603H16.9701H16.9798H16.9895H16.9992H17.0089H17.0185H17.0282H17.0378H17.0475H17.0571H17.0667H17.0763H17.0859H17.0954H17.105H17.1146H17.1241H17.1337H17.1432H17.1527H17.1622H17.1717H17.1812H17.1907H17.2001H17.2096H17.2191H17.2285H17.2379H17.2474H17.2568H17.2662H17.2756H17.285H17.2944H17.3037H17.3131H17.3225H17.3318H17.3412H17.3505H17.3599H17.3692H17.3785H17.3878H17.3971H17.4065H17.4158H17.425H17.4343H17.4436H17.4529H17.4622H17.4714H17.4807H17.49H17.4992H17.5085H17.5177H17.5269H17.5362H17.5454H17.5546H17.5639H17.5731H17.5823H17.5915H17.6007H17.6099H17.6192H17.6284H17.6376H17.6468H17.656H17.6652H17.6743H17.6835H17.6927H17.7019H17.7111H17.7203H17.7295H17.7387H17.7479H17.757H17.7662H17.7754H17.7846H17.7938H17.803H17.8121H17.8213H17.8305H17.8397H17.8489H17.8581H17.8673H17.8765H17.8856H17.8948H17.904H17.9132H17.9224H17.9316H17.9408H17.95H17.9593H17.9685H17.9777H17.9869H17.9961H18.0053H18.0146H18.0238H18.033H18.0423H18.0515H18.0608H18.07H18.0793H18.0885H18.0978H18.1071H18.1163H18.1256H18.1349H18.1442H18.1535H18.1628H18.1721H18.1814H18.1907H18.2001H18.2094H18.2187H18.2281H18.2374H18.2468H18.2562H18.2655H18.2749H18.2843H18.2937H18.3031H18.3125H18.322H18.3314H18.3408H18.3503H18.3597H18.3692H18.3787H18.3882H18.3977H18.4072H18.4167H18.4262H18.4357H18.4453H18.4548H18.4644H18.474H18.4835H18.4931H18.5027H18.5124H18.522H18.5316H18.5413H18.5509H18.5606H18.5703H18.58H18.5897H18.5994H18.6092H18.6189H18.6287H18.6384H18.6482H18.658H18.6678H18.6777H18.6875H18.6974H18.7072H18.7171H18.727H18.7369H18.7468H18.7568H18.7667H18.7767H18.7867H18.7967H18.8067H18.8167H18.8268H18.8368H18.8469H18.857H18.8671H18.8772H18.8874H18.8975H18.9077H18.9179H18.9281H18.9384H18.9486H18.9589H18.9691H18.9794H18.9898H19.0001H19.0104H19.0208H19.0312H19.0416H19.052H19.0625H19.0729H19.0834H19.0939H19.1044H19.115H19.1255H19.1361H19.1467H19.1574H19.168H19.1787H19.1893H19.2C19.8618 2.3627 20.5004 2.60767 20.9795 3.1267C21.458 3.64502 21.8572 4.52552 21.8572 5.93413V5.94914V5.96415V5.97918V5.99422V6.00928V6.02434V6.03941V6.0545V6.0696V6.08471V6.09982V6.11495V6.13009V6.14524V6.1604V6.17558V6.19076V6.20595V6.22115V6.23636V6.25158V6.26681V6.28205V6.2973V6.31256V6.32783V6.3431V6.35839V6.37368V6.38899V6.4043V6.41962V6.43495V6.45029V6.46563V6.48099V6.49635V6.51172V6.5271V6.54248V6.55788V6.57328V6.58869V6.6041V6.61952V6.63495V6.65039V6.66583V6.68128V6.69674V6.7122V6.72767V6.74315V6.75863V6.77412V6.78961V6.80511V6.82062V6.83613V6.85165V6.86717V6.8827V6.89823V6.91377V6.92932V6.94487V6.96042V6.97598V6.99154V7.00711V7.02268V7.03826V7.05384V7.06942V7.08501V7.1006V7.1162V7.1318V7.1474V7.16301V7.17862V7.19423V7.20985V7.22547V7.24109V7.25672V7.27234V7.28798V7.30361V7.30557H10.1429V7.29243V7.27903V7.26566V7.25232V7.23901V7.22573V7.21248V7.19925V7.18606V7.1729V7.15977V7.14666V7.13359V7.12055V7.10754V7.09456V7.08161V7.0687V7.05581V7.04296V7.03014V7.01735V7.00459V6.99187V6.97918V6.96652V6.95389V6.9413V6.92874V6.91622V6.90373V6.89127V6.87885V6.86646V6.85411V6.84179V6.82951V6.81726V6.80505V6.79288V6.78074V6.76863V6.75656V6.74453V6.73254V6.72058V6.70866V6.69677V6.68493V6.67312V6.66135V6.64961V6.63792V6.62626V6.61464V6.60306V6.59152V6.58002V6.56856V6.55714V6.54576V6.53441V6.52311V6.51185V6.50063V6.48944V6.4783V6.46721V6.45615V6.44513V6.43416V6.42322V6.41233V6.40148V6.39068V6.37991V6.36919V6.35851V6.34788V6.33729V6.32674V6.31623V6.30577V6.29536V6.28498V6.27466V6.26437V6.25414V6.24394V6.2338V6.22369V6.21364V6.20363V6.19366V6.18374V6.17387V6.16405V6.15427V6.14454V6.13485V6.12522V6.11563V6.10608V6.09659V6.08715V6.07775V6.0684V6.0591V6.04985V6.04065V6.0315V6.02239V6.01334V6.00434V5.99538V5.98648V5.97763V5.96883V5.96008V5.95138V5.94273V5.93413ZM8.1429 9.30557V9.31369V9.32918V9.34468V9.36018V9.37568V9.39119V9.40669V9.4222V9.4377V9.45321V9.46871V9.48422V9.49973V9.51523V9.53074V9.54625V9.56175V9.57725V9.59276V9.60826V9.62375V9.63925V9.65475V9.67024V9.68573V9.70122V9.71671V9.73219V9.74767V9.76314V9.77862V9.79409V9.80955V9.82501V9.84047V9.85592V9.87137V9.88681V9.90225V9.91768V9.93311V9.94853V9.96394V9.97935V9.99476V10.0102V10.0255V10.0409V10.0563V10.0717V10.087V10.1024V10.1177V10.1331V10.1484V10.1637V10.179V10.1943V10.2096V10.2249V10.2402V10.2555V10.2707V10.286V10.3012V10.3165V10.3317V10.3469V10.3621V10.3773V10.3924V10.4076V10.4228V10.4379V10.453V10.4681V10.4832V10.4983V10.5134V10.5285V10.5435V10.5586V10.5736V10.5886V10.6036V10.6186V10.6336V10.6485V10.6634V10.6784V10.6933V10.7082V10.7231V10.7379V10.7528V10.7676V10.7824V10.7972V10.812V10.8268V10.8415V10.8562V10.871V10.8857V10.9003V10.915V10.9296V10.9443V10.9589V10.9735V10.988V11.0026V11.0171V11.0316V11.0461V11.0606V11.075V11.0895V11.1039V11.1183V11.1326V11.147V11.1613V11.1756V11.1899V11.2042V11.2184V11.2326V11.2468V11.261V11.2752V11.2893V11.3034V11.3175V11.3315V11.3456V11.3596V11.3736V11.3875V11.4015V11.4154V11.4293V11.4431V11.457V11.4708V11.4846V11.4983V11.5121V11.5258V11.5395V11.5531V11.5667V11.5803V11.5939V11.6075V11.621V11.6345V11.6479V11.6614V11.6748V11.6882V11.7015V11.7148V11.7281V11.7414V11.7546V11.7678V11.781V11.7942V11.8073V11.8204V11.8334V11.8464V11.8594V11.8724V11.8853V11.8982V11.9111V11.9239V11.9367V11.9495V11.9622V11.9749V11.9876V12.0003V12.0129V12.0254V12.038V12.0505V12.0629V12.0754V12.0878V12.1001V12.1125V12.1248V12.137V12.1493V12.1615V12.1736V12.1857V12.1978V12.2099V12.2219V12.2338V12.2458V12.2577V12.2695V12.2814V12.2932V12.3049V12.3166V12.3283V12.3399V12.3515V12.3631V12.3746V12.3861V12.3975V12.4089V12.4203V12.4316V12.4429V12.4541V12.4653V12.4765V12.4876V12.4987V12.5097V12.5207V12.5316V12.5425V12.5534V12.5642V12.575V12.5858V12.5964V12.6071V12.6177V12.6283V12.6388V12.6493V12.6597V12.6701V12.6805V12.6908V12.701V12.7056H7.77139C7.21911 12.7056 6.77139 13.1533 6.77139 13.7056C6.77139 14.2579 7.21911 14.7056 7.77139 14.7056H10.5142C11.0665 14.7056 11.5142 14.2579 11.5142 13.7056C11.5142 13.1533 11.0665 12.7056 10.5142 12.7056H10.1429V12.701V12.6908V12.6805V12.6701V12.6597V12.6493V12.6388V12.6283V12.6177V12.6071V12.5964V12.5858V12.575V12.5642V12.5534V12.5425V12.5316V12.5207V12.5097V12.4987V12.4876V12.4765V12.4653V12.4541V12.4429V12.4316V12.4203V12.4089V12.3975V12.3861V12.3746V12.3631V12.3515V12.3399V12.3283V12.3166V12.3049V12.2932V12.2814V12.2695V12.2577V12.2458V12.2338V12.2219V12.2099V12.1978V12.1857V12.1736V12.1615V12.1493V12.137V12.1248V12.1125V12.1001V12.0878V12.0754V12.0629V12.0505V12.038V12.0254V12.0129V12.0003V11.9876V11.9749V11.9622V11.9495V11.9367V11.9239V11.9111V11.8982V11.8853V11.8724V11.8594V11.8464V11.8334V11.8204V11.8073V11.7942V11.781V11.7678V11.7546V11.7414V11.7281V11.7148V11.7015V11.6882V11.6748V11.6614V11.6479V11.6345V11.621V11.6075V11.5939V11.5803V11.5667V11.5531V11.5395V11.5258V11.5121V11.4983V11.4846V11.4708V11.457V11.4431V11.4293V11.4154V11.4015V11.3875V11.3736V11.3596V11.3456V11.3315V11.3175V11.3034V11.2893V11.2752V11.261V11.2468V11.2326V11.2184V11.2042V11.1899V11.1756V11.1613V11.147V11.1326V11.1183V11.1039V11.0895V11.075V11.0606V11.0461V11.0316V11.0171V11.0026V10.988V10.9735V10.9589V10.9443V10.9296V10.915V10.9003V10.8857V10.871V10.8562V10.8415V10.8268V10.812V10.7972V10.7824V10.7676V10.7528V10.7379V10.7231V10.7082V10.6933V10.6784V10.6634V10.6485V10.6336V10.6186V10.6036V10.5886V10.5736V10.5586V10.5435V10.5285V10.5134V10.4983V10.4832V10.4681V10.453V10.4379V10.4228V10.4076V10.3924V10.3773V10.3621V10.3469V10.3317V10.3165V10.3012V10.286V10.2707V10.2555V10.2402V10.2249V10.2096V10.1943V10.179V10.1637V10.1484V10.1331V10.1177V10.1024V10.087V10.0717V10.0563V10.0409V10.0255V10.0102V9.99476V9.97935V9.96394V9.94853V9.93311V9.91768V9.90225V9.88681V9.87137V9.85592V9.84047V9.82501V9.80955V9.79409V9.77862V9.76314V9.74767V9.73219V9.71671V9.70122V9.68573V9.67024V9.65475V9.63925V9.62375V9.60826V9.59276V9.57725V9.56175V9.54625V9.53074V9.51523V9.49973V9.48422V9.46871V9.45321V9.4377V9.4222V9.40669V9.39119V9.37568V9.36018V9.34468V9.32918V9.31369V9.30557H21.8572V9.31747V9.33251V9.34754V9.36256V9.37757V9.39257V9.40755V9.42252V9.43748V9.45243V9.46737V9.48229V9.4972V9.5121V9.52698V9.54185V9.55671V9.57156V9.58639V9.60121V9.61602V9.63081V9.64559V9.66035V9.6751V9.68984V9.70456V9.71927V9.73397V9.74865V9.76331V9.77796V9.7926V9.80722V9.82183V9.83642V9.851V9.86556V9.8801V9.89464V9.90915V9.92365V9.93813V9.9526V9.96705V9.98149V9.99591V10.0103V10.0247V10.0391V10.0534V10.0678V10.0821V10.0964V10.1107V10.1249V10.1392V10.1534V10.1676V10.1818V10.196V10.2102V10.2243V10.2385V10.2526V10.2667V10.2807V10.2948V10.3088V10.3228V10.3368V10.3508V10.3648V10.3787V10.3926V10.4065V10.4204V10.4343V10.4481V10.462V10.4758V10.4896V10.5033V10.5171V10.5308V10.5445V10.5582V10.5718V10.5855V10.5991V10.6127V10.6263V10.6398V10.6534V10.6669V10.6804V10.6939V10.7073V10.7208V10.7342V10.7476V10.7609V10.7743V10.7876V10.8009V10.8142V10.8274V10.8406V10.8538V10.867V10.8802V10.8933V10.9064V10.9195V10.9326V10.9457V10.9587V10.9717V10.9846V10.9976V11.0105V11.0234V11.0363V11.0492V11.062V11.0748V11.0876V11.1003V11.113V11.1258V11.1384V11.1511V11.1637V11.1763V11.1889V11.2014V11.214V11.2265V11.2389V11.2514V11.2638V11.2762V11.2886V11.3009V11.3132V11.3255V11.3378V11.35V11.3622V11.3744V11.3866V11.3987V11.4108V11.4229V11.4349V11.4469V11.4589V11.4709V11.4828V11.4947V11.5066V11.5185V11.5303V11.5421V11.5538V11.5656V11.5773V11.5889V11.6006V11.6122V11.6238V11.6353V11.6469V11.6584V11.6698V11.6813V11.6927V11.7041V11.7154V11.7267V11.738V11.7493V11.7605V11.7717V11.7829V11.794V11.8051V11.8162V11.8272V11.8382V11.8492V11.8602V11.8711V11.8819V11.8928V11.9036V11.9144V11.9252V11.9359V11.9466V11.9572V11.9678V11.9784V11.989V11.9995V12.01V12.0205V12.0309V12.0413V12.0517V12.062V12.0723V12.0825V12.0928V12.1029V12.1131V12.1232V12.1333V12.1434V12.1534V12.1634V12.1733V12.1832V12.1931V12.2029V12.2128V12.2225V12.2323V12.242V12.2516V12.2613V12.2709V12.2804V12.2899V12.2994V12.3089V12.3183V12.3277V12.337V12.3463V12.3556V12.3648V12.374V12.3832V12.3923V12.4014V12.4104V12.4194V12.4284V12.4373V12.4462V12.4551V12.4639V12.4727V12.4814V12.4901V12.4988V12.5074V12.516V12.5245V12.533V12.5415V12.5499V12.5583V12.5667V12.575V12.5833V12.5915V12.5997V12.6078V12.6159V12.624V12.6321V12.64V12.648V12.6559V12.6638V12.6716V12.6794V12.6872V12.6949V12.7025V12.7092C21.345 12.7527 20.9429 13.1822 20.9429 13.7056C20.9429 14.2579 21.3906 14.7056 21.9429 14.7056H24.6858C25.2381 14.7056 25.6858 14.2579 25.6858 13.7056C25.6858 13.1533 25.2381 12.7056 24.6858 12.7056H23.8572V12.7025V12.6949V12.6872V12.6794V12.6716V12.6638V12.6559V12.648V12.64V12.6321V12.624V12.6159V12.6078V12.5997V12.5915V12.5833V12.575V12.5667V12.5583V12.5499V12.5415V12.533V12.5245V12.516V12.5074V12.4988V12.4901V12.4814V12.4727V12.4639V12.4551V12.4462V12.4373V12.4284V12.4194V12.4104V12.4014V12.3923V12.3832V12.374V12.3648V12.3556V12.3463V12.337V12.3277V12.3183V12.3089V12.2994V12.2899V12.2804V12.2709V12.2613V12.2516V12.242V12.2323V12.2225V12.2128V12.2029V12.1931V12.1832V12.1733V12.1634V12.1534V12.1434V12.1333V12.1232V12.1131V12.1029V12.0928V12.0825V12.0723V12.062V12.0517V12.0413V12.0309V12.0205V12.01V11.9995V11.989V11.9784V11.9678V11.9572V11.9466V11.9359V11.9252V11.9144V11.9036V11.8928V11.8819V11.8711V11.8602V11.8492V11.8382V11.8272V11.8162V11.8051V11.794V11.7829V11.7717V11.7605V11.7493V11.738V11.7267V11.7154V11.7041V11.6927V11.6813V11.6698V11.6584V11.6469V11.6353V11.6238V11.6122V11.6006V11.5889V11.5773V11.5656V11.5538V11.5421V11.5303V11.5185V11.5066V11.4947V11.4828V11.4709V11.4589V11.4469V11.4349V11.4229V11.4108V11.3987V11.3866V11.3744V11.3622V11.35V11.3378V11.3255V11.3132V11.3009V11.2886V11.2762V11.2638V11.2514V11.2389V11.2265V11.214V11.2014V11.1889V11.1763V11.1637V11.1511V11.1384V11.1258V11.113V11.1003V11.0876V11.0748V11.062V11.0492V11.0363V11.0234V11.0105V10.9976V10.9846V10.9717V10.9587V10.9457V10.9326V10.9195V10.9064V10.8933V10.8802V10.867V10.8538V10.8406V10.8274V10.8142V10.8009V10.7876V10.7743V10.7609V10.7476V10.7342V10.7208V10.7073V10.6939V10.6804V10.6669V10.6534V10.6398V10.6263V10.6127V10.5991V10.5855V10.5718V10.5582V10.5445V10.5308V10.5171V10.5033V10.4896V10.4758V10.462V10.4481V10.4343V10.4204V10.4065V10.3926V10.3787V10.3648V10.3508V10.3368V10.3228V10.3088V10.2948V10.2807V10.2667V10.2526V10.2385V10.2243V10.2102V10.196V10.1818V10.1676V10.1534V10.1392V10.1249V10.1107V10.0964V10.0821V10.0678V10.0534V10.0391V10.0247V10.0103V9.99591V9.98149V9.96705V9.9526V9.93813V9.92365V9.90915V9.89464V9.8801V9.86556V9.851V9.83642V9.82183V9.80722V9.7926V9.77796V9.76331V9.74865V9.73397V9.71927V9.70456V9.68984V9.6751V9.66035V9.64559V9.63081V9.61602V9.60121V9.58639V9.57156V9.55671V9.54185V9.52698V9.5121V9.4972V9.48229V9.46737V9.45243V9.43748V9.42252V9.40755V9.39257V9.37757V9.36256V9.34754V9.33251V9.31747V9.30557H27C28.6569 9.30557 30 10.6487 30 12.3056V27.9056C30 29.5624 28.6569 30.9056 27 30.9056H5C3.34315 30.9056 2 29.5624 2 27.9056V12.3056C2 10.6487 3.34315 9.30557 5 9.30557H8.1429ZM8.1429 7.30557V7.29243V7.27903V7.26566V7.25232V7.23901V7.22573V7.21248V7.19925V7.18606V7.1729V7.15977V7.14666V7.13359V7.12055V7.10754V7.09456V7.08161V7.0687V7.05581V7.04296V7.03014V7.01735V7.00459V6.99187V6.97918V6.96652V6.95389V6.9413V6.92874V6.91622V6.90373V6.89127V6.87885V6.86646V6.85411V6.84179V6.82951V6.81726V6.80505V6.79288V6.78074V6.76863V6.75656V6.74453V6.73254V6.72058V6.70866V6.69677V6.68493V6.67312V6.66135V6.64961V6.63792V6.62626V6.61464V6.60306V6.59152V6.58002V6.56856V6.55714V6.54576V6.53441V6.52311V6.51185V6.50063V6.48944V6.4783V6.46721V6.45615V6.44513V6.43416V6.42322V6.41233V6.40148V6.39068V6.37991V6.36919V6.35851V6.34788V6.33729V6.32674V6.31623V6.30577V6.29536V6.28498V6.27466V6.26437V6.25414V6.24394V6.2338V6.22369V6.21364V6.20363V6.19366V6.18374V6.17387V6.16405V6.15427V6.14454V6.13485V6.12522V6.11563V6.10608V6.09659V6.08715V6.07775V6.0684V6.0591V6.04985V6.04065V6.0315V6.02239V6.01334V6.00434V5.99538V5.98648V5.97763V5.96883V5.96008V5.95138V5.94273V5.93413C8.1429 4.88194 8.40108 3.52332 9.176 2.39617C9.98623 1.21765 11.3193 0.362701 13.2572 0.362701H13.2759H13.2946H13.3132H13.3318H13.3503H13.3687H13.3872H13.4055H13.4238H13.4421H13.4603H13.4785H13.4966H13.5146H13.5326H13.5506H13.5685H13.5863H13.6042H13.6219H13.6396H13.6573H13.6749H13.6924H13.71H13.7274H13.7448H13.7622H13.7795H13.7968H13.814H13.8312H13.8483H13.8654H13.8824H13.8994H13.9163H13.9332H13.9501H13.9669H13.9836H14.0003H14.017H14.0336H14.0501H14.0667H14.0831H14.0996H14.1159H14.1323H14.1486H14.1648H14.181H14.1972H14.2133H14.2293H14.2454H14.2613H14.2773H14.2932H14.309H14.3248H14.3406H14.3563H14.372H14.3876H14.4032H14.4187H14.4342H14.4497H14.4651H14.4805H14.4958H14.5111H14.5264H14.5416H14.5567H14.5719H14.5869H14.602H14.617H14.6319H14.6469H14.6617H14.6766H14.6914H14.7061H14.7209H14.7355H14.7502H14.7648H14.7794H14.7939H14.8084H14.8228H14.8372H14.8516H14.8659H14.8802H14.8944H14.9087H14.9228H14.937H14.9511H14.9651H14.9792H14.9932H15.0071H15.021H15.0349H15.0488H15.0626H15.0763H15.0901H15.1038H15.1174H15.131H15.1446H15.1582H15.1717H15.1852H15.1986H15.2121H15.2254H15.2388H15.2521H15.2654H15.2786H15.2918H15.305H15.3181H15.3312H15.3443H15.3574H15.3704H15.3833H15.3963H15.4092H15.4221H15.4349H15.4477H15.4605H15.4733H15.486H15.4987H15.5113H15.5239H15.5365H15.5491H15.5616H15.5741H15.5866H15.599H15.6114H15.6238H15.6361H15.6484H15.6607H15.673H15.6852H15.6974H15.7096H15.7217H15.7338H15.7459H15.7579H15.77H15.782H15.7939H15.8059H15.8178H15.8296H15.8415H15.8533H15.8651H15.8769H15.8886H15.9004H15.9121H15.9237H15.9354H15.947H15.9585H15.9701H15.9816H15.9931H16.0046H16.0161H16.0275H16.0389H16.0503H16.0616H16.073H16.0843H16.0956H16.1068H16.1181H16.1293H16.1404H16.1516H16.1627H16.1739H16.1849H16.196H16.2071H16.2181H16.2291H16.24H16.251H16.2619H16.2728H16.2837H16.2946H16.3054H16.3162H16.327H16.3378H16.3486H16.3593H16.37H16.3807H16.3914H16.402H16.4127H16.4233H16.4339H16.4444H16.455H16.4655H16.476H16.4865H16.497H16.5074H16.5179H16.5283H16.5387H16.5491H16.5594H16.5698H16.5801H16.5904H16.6007H16.6109H16.6212H16.6314H16.6416H16.6518H16.662H16.6722H16.6823H16.6925H16.7026H16.7127H16.7228H16.7328H16.7429H16.7529H16.763H16.773H16.783H16.7929H16.8029H16.8128H16.8228H16.8327H16.8426H16.8525H16.8623H16.8722H16.8821H16.8919H16.9017H16.9115H16.9213H16.9311H16.9408H16.9506H16.9603H16.9701H16.9798H16.9895H16.9992H17.0089H17.0185H17.0282H17.0378H17.0475H17.0571H17.0667H17.0763H17.0859H17.0954H17.105H17.1146H17.1241H17.1337H17.1432H17.1527H17.1622H17.1717H17.1812H17.1907H17.2001H17.2096H17.2191H17.2285H17.2379H17.2474H17.2568H17.2662H17.2756H17.285H17.2944H17.3037H17.3131H17.3225H17.3318H17.3412H17.3505H17.3599H17.3692H17.3785H17.3878H17.3971H17.4065H17.4158H17.425H17.4343H17.4436H17.4529H17.4622H17.4714H17.4807H17.49H17.4992H17.5085H17.5177H17.5269H17.5362H17.5454H17.5546H17.5639H17.5731H17.5823H17.5915H17.6007H17.6099H17.6192H17.6284H17.6376H17.6468H17.656H17.6652H17.6743H17.6835H17.6927H17.7019H17.7111H17.7203H17.7295H17.7387H17.7479H17.757H17.7662H17.7754H17.7846H17.7938H17.803H17.8121H17.8213H17.8305H17.8397H17.8489H17.8581H17.8673H17.8765H17.8856H17.8948H17.904H17.9132H17.9224H17.9316H17.9408H17.95H17.9593H17.9685H17.9777H17.9869H17.9961H18.0053H18.0146H18.0238H18.033H18.0423H18.0515H18.0608H18.07H18.0793H18.0885H18.0978H18.1071H18.1163H18.1256H18.1349H18.1442H18.1535H18.1628H18.1721H18.1814H18.1907H18.2001H18.2094H18.2187H18.2281H18.2374H18.2468H18.2562H18.2655H18.2749H18.2843H18.2937H18.3031H18.3125H18.322H18.3314H18.3408H18.3503H18.3597H18.3692H18.3787H18.3882H18.3977H18.4072H18.4167H18.4262H18.4357H18.4453H18.4548H18.4644H18.474H18.4835H18.4931H18.5027H18.5124H18.522H18.5316H18.5413H18.5509H18.5606H18.5703H18.58H18.5897H18.5994H18.6092H18.6189H18.6287H18.6384H18.6482H18.658H18.6678H18.6777H18.6875H18.6974H18.7072H18.7171H18.727H18.7369H18.7468H18.7568H18.7667H18.7767H18.7867H18.7967H18.8067H18.8167H18.8268H18.8368H18.8469H18.857H18.8671H18.8772H18.8874H18.8975H18.9077H18.9179H18.9281H18.9384H18.9486H18.9589H18.9691H18.9794H18.9898H19.0001H19.0104H19.0208H19.0312H19.0416H19.052H19.0625H19.0729H19.0834H19.0939H19.1044H19.115H19.1255H19.1361H19.1467H19.1574H19.168H19.1787H19.1893H19.2C20.3668 0.362701 21.5568 0.803447 22.4491 1.77014C23.3421 2.73753 23.8572 4.14274 23.8572 5.93413V5.94914V5.96415V5.97918V5.99422V6.00928V6.02434V6.03941V6.0545V6.0696V6.08471V6.09982V6.11495V6.13009V6.14524V6.1604V6.17558V6.19076V6.20595V6.22115V6.23636V6.25158V6.26681V6.28205V6.2973V6.31256V6.32783V6.3431V6.35839V6.37368V6.38899V6.4043V6.41962V6.43495V6.45029V6.46563V6.48099V6.49635V6.51172V6.5271V6.54248V6.55788V6.57328V6.58869V6.6041V6.61952V6.63495V6.65039V6.66583V6.68128V6.69674V6.7122V6.72767V6.74315V6.75863V6.77412V6.78961V6.80511V6.82062V6.83613V6.85165V6.86717V6.8827V6.89823V6.91377V6.92932V6.94487V6.96042V6.97598V6.99154V7.00711V7.02268V7.03826V7.05384V7.06942V7.08501V7.1006V7.1162V7.1318V7.1474V7.16301V7.17862V7.19423V7.20985V7.22547V7.24109V7.25672V7.27234V7.28798V7.30361V7.30557H27C29.7614 7.30557 32 9.54414 32 12.3056V27.9056C32 30.667 29.7614 32.9056 27 32.9056H5C2.23858 32.9056 0 30.667 0 27.9056V12.3056C0 9.54415 2.23858 7.30557 5 7.30557H8.1429Z" fill="white" fill-opacity="0.85"/>
</svg>
