<svg width="25" height="27" viewBox="0 0 25 27" fill="none" xmlns="http://www.w3.org/2000/svg">
<path fill-rule="evenodd" clip-rule="evenodd" d="M14.5331 2.93559C12.4067 2.36582 10.1677 2.36582 8.04125 2.93559C7.37221 3.11486 6.68452 2.71783 6.50526 2.04879C6.32599 1.37975 6.72302 0.692069 7.39206 0.512801C9.94379 -0.170934 12.6306 -0.170934 15.1823 0.512801C15.8513 0.692069 16.2484 1.37975 16.0691 2.04879C15.8898 2.71783 15.2021 3.11486 14.5331 2.93559ZM18.6314 3.30438C19.0503 2.75276 19.837 2.64516 20.3886 3.06404C21.9829 4.27466 23.3196 5.79117 24.3205 7.52478C24.6668 8.12462 24.4613 8.89163 23.8614 9.23795C23.2616 9.58427 22.4946 9.37875 22.1483 8.77891C21.3142 7.33423 20.2003 6.07048 18.8717 5.06163C18.3201 4.64274 18.2125 3.856 18.6314 3.30438ZM11.2872 6.27065C6.43871 6.27065 2.50826 10.2011 2.50826 15.0496C2.50826 19.898 6.43871 23.8285 11.2872 23.8285C16.1356 23.8285 20.0661 19.898 20.0661 15.0496C20.0661 10.2011 16.1356 6.27065 11.2872 6.27065ZM0 15.0496C0 8.81583 5.05344 3.76239 11.2872 3.76239C17.5209 3.76239 22.5743 8.81583 22.5743 15.0496C22.5743 21.2833 17.5209 26.3367 11.2872 26.3367C5.05344 26.3367 0 21.2833 0 15.0496ZM17.1905 11.0274C17.6803 11.5172 17.6803 12.3113 17.1905 12.801L10.9198 19.0717C10.4301 19.5615 9.63601 19.5615 9.14624 19.0717L6.01091 15.9364C5.52114 15.4466 5.52114 14.6525 6.01091 14.1628C6.50068 13.673 7.29475 13.673 7.78452 14.1628L10.033 16.4113L15.4169 11.0274C15.9067 10.5377 16.7007 10.5377 17.1905 11.0274Z" fill="white"/>
</svg>
