<svg width="83" height="16" viewBox="0 0 83 16" fill="none" xmlns="http://www.w3.org/2000/svg">
<path fill-rule="evenodd" clip-rule="evenodd" d="M4.08 9.4373C4.25217 9.56643 4.3224 9.79125 4.25434 9.99542L2.48899 15.2915C2.33398 15.7565 2.87118 16.1437 3.26333 15.8496L7.64653 12.5622C7.82431 12.4289 8.06875 12.4289 8.24653 12.5622L12.6297 15.8496C13.0219 16.1437 13.5591 15.7565 13.4041 15.2915L11.6992 10.177C11.629 9.9662 11.7063 9.7343 11.889 9.60781L16.3215 6.53912C16.7245 6.26011 16.5271 5.62803 16.0369 5.62803H10.5433C10.3281 5.62803 10.137 5.49031 10.069 5.28614L8.42087 0.341886C8.26892 -0.113962 7.62414 -0.113962 7.47219 0.341886L5.8241 5.28614C5.75604 5.49031 5.56497 5.62803 5.34976 5.62803H0.50097C0.0204638 5.62803 -0.183435 6.23973 0.20097 6.52803L4.08 9.4373Z" fill="#FF9A4F"/>
<path fill-rule="evenodd" clip-rule="evenodd" d="M20.4802 9.4373C20.6524 9.56643 20.7226 9.79125 20.6545 9.99542L18.8892 15.2915C18.7342 15.7565 19.2714 16.1437 19.6635 15.8496L24.0467 12.5622C24.2245 12.4289 24.469 12.4289 24.6467 12.5622L29.0299 15.8496C29.4221 16.1437 29.9593 15.7565 29.8043 15.2915L28.0995 10.177C28.0292 9.9662 28.1065 9.7343 28.2892 9.60781L32.7217 6.53912C33.1248 6.26011 32.9273 5.62803 32.4371 5.62803H26.9435C26.7283 5.62803 26.5372 5.49031 26.4692 5.28614L24.8211 0.341886C24.6691 -0.113962 24.0243 -0.113962 23.8724 0.341886L22.2243 5.28614C22.1562 5.49031 21.9652 5.62803 21.75 5.62803H16.9012C16.4207 5.62803 16.2168 6.23973 16.6012 6.52803L20.4802 9.4373Z" fill="#FF9A4F"/>
<path fill-rule="evenodd" clip-rule="evenodd" d="M36.8804 9.4373C37.0525 9.56643 37.1228 9.79125 37.0547 9.99542L35.2893 15.2915C35.1343 15.7565 35.6715 16.1437 36.0637 15.8496L40.4469 12.5622C40.6247 12.4289 40.8691 12.4289 41.0469 12.5622L45.4301 15.8496C45.8222 16.1437 46.3594 15.7565 46.2044 15.2915L44.4996 10.177C44.4293 9.9662 44.5066 9.7343 44.6893 9.60781L49.1219 6.53912C49.5249 6.26011 49.3275 5.62803 48.8373 5.62803H43.3437C43.1284 5.62803 42.9374 5.49031 42.8693 5.28614L41.2212 0.341886C41.0693 -0.113962 40.4245 -0.113962 40.2725 0.341886L38.6245 5.28614C38.5564 5.49031 38.3653 5.62803 38.1501 5.62803H33.3013C32.8208 5.62803 32.6169 6.23973 33.0013 6.52803L36.8804 9.4373Z" fill="#FF9A4F"/>
<path fill-rule="evenodd" clip-rule="evenodd" d="M53.2806 9.4373C53.4527 9.56643 53.523 9.79125 53.4549 9.99542L51.6895 15.2915C51.5345 15.7565 52.0717 16.1437 52.4639 15.8496L56.8471 12.5622C57.0249 12.4289 57.2693 12.4289 57.4471 12.5622L61.8303 15.8496C62.2224 16.1437 62.7596 15.7565 62.6046 15.2915L60.8998 10.177C60.8295 9.9662 60.9068 9.7343 61.0895 9.60781L65.5221 6.53912C65.9251 6.26011 65.7277 5.62803 65.2375 5.62803H59.7439C59.5286 5.62803 59.3376 5.49031 59.2695 5.28614L57.6214 0.341886C57.4695 -0.113962 56.8247 -0.113962 56.6727 0.341886L55.0247 5.28614C54.9566 5.49031 54.7655 5.62803 54.5503 5.62803H49.7015C49.221 5.62803 49.0171 6.23973 49.4015 6.52803L53.2806 9.4373Z" fill="#FF9A4F"/>
<path fill-rule="evenodd" clip-rule="evenodd" d="M69.6808 9.4373C69.853 9.56643 69.9232 9.79124 69.8551 9.99542L68.0898 15.2915C67.9348 15.7565 68.472 16.1437 68.8641 15.8496L73.2473 12.5622C73.4251 12.4289 73.6695 12.4289 73.8473 12.5622L78.2305 15.8496C78.6227 16.1437 79.1599 15.7565 79.0049 15.2915L77.3 10.177C77.2298 9.9662 77.3071 9.7343 77.4898 9.60781L81.9223 6.53912C82.3253 6.26011 82.1279 5.62803 81.6377 5.62803H76.1441C75.9289 5.62803 75.7378 5.49031 75.6698 5.28614L74.0217 0.341886C73.8697 -0.113962 73.2249 -0.113962 73.073 0.341886L71.4249 5.28614C71.3568 5.49031 71.1658 5.62803 70.9506 5.62803H66.1018C65.6213 5.62803 65.4174 6.23973 65.8018 6.52803L69.6808 9.4373Z" fill="#FF9A4F"/>
</svg>
