<svg width="31" height="33" viewBox="0 0 31 33" fill="none" xmlns="http://www.w3.org/2000/svg">
<circle cx="15.4504" cy="6" r="5" stroke="white" stroke-opacity="0.85" stroke-width="2"/>
<mask id="path-2-inside-1_62_28" fill="white">
<path fill-rule="evenodd" clip-rule="evenodd" d="M15.4504 33H2.82695C1.03014 33 -0.364394 31.4275 0.0849372 29.6878C1.70206 23.4266 6.15435 15 15.4504 15C24.7464 15 29.1987 23.4266 30.8159 29.6878C31.2652 31.4275 29.8707 33 28.0738 33H15.4504Z"/>
</mask>
<path d="M30.8159 29.6878L28.8794 30.1879L30.8159 29.6878ZM2.82695 35H15.4504V31H2.82695V35ZM15.4504 13C10.1104 13 6.15032 15.451 3.36973 18.6942C0.630175 21.8895 -0.995521 25.8734 -1.85152 29.1877L2.02139 30.1879C2.78252 27.241 4.19153 23.8811 6.40641 21.2977C8.58027 18.7623 11.4944 17 15.4504 17V13ZM15.4504 17C19.4064 17 22.3205 18.7623 24.4944 21.2977C26.7093 23.8811 28.1183 27.241 28.8794 30.1879L32.7523 29.1877C31.8963 25.8734 30.2706 21.8895 27.5311 18.6942C24.7505 15.451 20.7904 13 15.4504 13V17ZM28.0738 31H15.4504V35H28.0738V31ZM28.8794 30.1879C28.9311 30.3882 28.8864 30.5556 28.7609 30.7038C28.6233 30.8663 28.3834 31 28.0738 31V35C30.985 35 33.5753 32.3742 32.7523 29.1877L28.8794 30.1879ZM2.82695 31C2.51736 31 2.27747 30.8663 2.1399 30.7038C2.01437 30.5556 1.96968 30.3882 2.02139 30.1879L-1.85152 29.1877C-2.67454 32.3742 -0.0842428 35 2.82695 35V31Z" fill="white" fill-opacity="0.85" mask="url(#path-2-inside-1_62_28)"/>
</svg>
